<?xml version="1.0" encoding="UTF-8" standalone="no"?>
<svg width="200" height="80" viewBox="0 0 200 80" xmlns="http://www.w3.org/2000/svg">
  <defs>
    <linearGradient id="shieldGradient" x1="0%" y1="0%" x2="100%" y2="100%">
      <stop offset="0%" style="stop-color:#1E3A8A;stop-opacity:1" />
      <stop offset="100%" style="stop-color:#2563EB;stop-opacity:1" />
    </linearGradient>
    <linearGradient id="globeGradient" x1="0%" y1="0%" x2="100%" y2="100%">
      <stop offset="0%" style="stop-color:#F59E0B;stop-opacity:1" />
      <stop offset="100%" style="stop-color:#D97706;stop-opacity:1" />
    </linearGradient>
  </defs>
  
  <!-- Shield -->
  <path d="M40,15 C40,15 25,20 25,20 C25,20 25,45 25,45 C25,45 40,55 40,55 C40,55 55,45 55,45 C55,45 55,20 55,20 C55,20 40,15 40,15 Z" 
        fill="url(#shieldGradient)" 
        stroke="#1E3A8A" 
        stroke-width="1.5" />
  
  <!-- Globe -->
  <circle cx="40" cy="35" r="12" fill="url(#globeGradient)" stroke="#1E3A8A" stroke-width="1" />
  
  <!-- Globe Lines -->
  <path d="M28,35 H52" stroke="#1E3A8A" stroke-width="1" fill="none" />
  <path d="M40,23 V47" stroke="#1E3A8A" stroke-width="1" fill="none" />
  <ellipse cx="40" cy="35" rx="8" ry="12" fill="none" stroke="#1E3A8A" stroke-width="1" />
  
  <!-- Text -->
  <text x="70" y="40" font-family="Arial, sans-serif" font-size="20" font-weight="600" fill="#1E40AF" text-anchor="start">
    TariffSmart
  </text>
</svg>
